<svg width="22" height="22" viewBox="0 0 22 22" fill="none" xmlns="http://www.w3.org/2000/svg">
<path d="M20.6078 17.1753L17.1237 13.6912L14.4439 12.584C15.3362 11.3151 15.8142 9.80126 15.8125 8.25C15.8125 4.08001 12.42 0.6875 8.25 0.6875C4.08001 0.6875 0.6875 4.08001 0.6875 8.25C0.6875 12.42 4.08001 15.8125 8.25 15.8125C9.81476 15.8143 11.3411 15.328 12.6164 14.4213L13.7207 17.094L17.2047 20.5782C17.4281 20.8017 17.6934 20.9789 17.9853 21.0999C18.2773 21.2208 18.5902 21.283 18.9062 21.283C19.2222 21.2831 19.5351 21.2208 19.827 21.0999C20.119 20.979 20.3843 20.8018 20.6077 20.5783C20.8312 20.3549 21.0084 20.0896 21.1293 19.7977C21.2503 19.5057 21.3125 19.1928 21.3125 18.8768C21.3126 18.5608 21.2503 18.2479 21.1294 17.956C21.0085 17.664 20.8313 17.3987 20.6078 17.1753V17.1753ZM2.0625 8.25C2.0625 4.83828 4.83828 2.0625 8.25 2.0625C11.6617 2.0625 14.4375 4.83828 14.4375 8.25C14.4375 11.6617 11.6617 14.4375 8.25 14.4375C4.83828 14.4375 2.0625 11.6617 2.0625 8.25ZM19.6355 19.606C19.4419 19.7991 19.1797 19.9075 18.9062 19.9075C18.6328 19.9075 18.3706 19.7991 18.177 19.606L14.8868 16.3158L13.8601 13.8307L16.3453 14.8573L19.6356 18.1476C19.8286 18.3411 19.9371 18.6034 19.9371 18.8768C19.937 19.1502 19.8286 19.4124 19.6355 19.606V19.606Z" fill="white"/>
</svg>
