<svg width="16" height="8" viewBox="0 0 16 8" fill="none" xmlns="http://www.w3.org/2000/svg">
<path d="M7.99979 7.00028C7.76614 7.00073 7.5397 6.91936 7.35979 6.77028L1.35979 1.77028C1.15557 1.60054 1.02715 1.35663 1.00277 1.0922C0.978387 0.827773 1.06005 0.564492 1.22979 0.360275C1.39953 0.156059 1.64344 0.0276347 1.90786 0.00325496C2.17229 -0.0211248 2.43557 0.0605367 2.63979 0.230275L7.99979 4.71028L13.3598 0.390276C13.4621 0.30721 13.5798 0.245178 13.7061 0.207747C13.8324 0.170315 13.9649 0.158221 14.096 0.17216C14.227 0.186099 14.354 0.225796 14.4696 0.28897C14.5853 0.352144 14.6873 0.437549 14.7698 0.540276C14.8614 0.643097 14.9307 0.763723 14.9735 0.894597C15.0163 1.02547 15.0316 1.16377 15.0185 1.30083C15.0053 1.4379 14.964 1.57077 14.8971 1.69113C14.8303 1.81148 14.7392 1.91673 14.6298 2.00028L8.62979 6.83028C8.4447 6.95579 8.22289 7.01565 7.99979 7.00028Z" fill="#F4F4F4"/>
</svg>
