<svg width="7" height="12" viewBox="0 0 7 12" fill="none" xmlns="http://www.w3.org/2000/svg">
<path fill-rule="evenodd" clip-rule="evenodd" d="M3.50024 10.499C3.36764 10.499 3.24046 10.4463 3.14669 10.3526C3.05292 10.2588 3.00024 10.1316 3.00024 9.99902L3.00024 0.999023C3.00024 0.866415 3.05292 0.739238 3.14669 0.64547C3.24046 0.551701 3.36764 0.499023 3.50025 0.499023C3.63285 0.499023 3.76003 0.551702 3.8538 0.64547C3.94757 0.739238 4.00024 0.866415 4.00024 0.999023L4.00024 9.99902C4.00024 10.1316 3.94757 10.2588 3.8538 10.3526C3.76003 10.4463 3.63285 10.499 3.50024 10.499Z" fill="#C8135F"/>
<path fill-rule="evenodd" clip-rule="evenodd" d="M3.85434 11.3531C3.8079 11.3997 3.75272 11.4366 3.69198 11.4618C3.63123 11.487 3.56611 11.5 3.50034 11.5C3.43458 11.5 3.36946 11.487 3.30871 11.4618C3.24797 11.4366 3.19279 11.3997 3.14634 11.3531L0.146345 8.35311C0.0524581 8.25922 -0.000286285 8.13188 -0.000286273 7.99911C-0.000286261 7.86633 0.0524581 7.73899 0.146345 7.64511C0.240232 7.55122 0.367569 7.49847 0.500345 7.49847C0.633121 7.49847 0.760458 7.55122 0.854345 7.64511L3.50034 10.2921L6.14634 7.64511C6.24023 7.55122 6.36757 7.49847 6.50035 7.49847C6.63312 7.49847 6.76046 7.55122 6.85435 7.64511C6.94823 7.73899 7.00098 7.86633 7.00098 7.99911C7.00098 8.13188 6.94823 8.25922 6.85435 8.35311L3.85434 11.3531Z" fill="#C8135F"/>
</svg>
