<svg width="10" height="10" viewBox="0 0 10 10" fill="none" xmlns="http://www.w3.org/2000/svg">
<path fill-rule="evenodd" clip-rule="evenodd" d="M10 5C10 6.32608 9.47322 7.59785 8.53553 8.53553C7.59785 9.47322 6.32608 10 5 10C3.67392 10 2.40215 9.47322 1.46447 8.53553C0.526784 7.59785 0 6.32608 0 5C0 3.67392 0.526784 2.40215 1.46447 1.46447C2.40215 0.526784 3.67392 0 5 0C6.32608 0 7.59785 0.526784 8.53553 1.46447C9.47322 2.40215 10 3.67392 10 5ZM4.77875 6.65375C4.72007 6.71243 4.68711 6.79202 4.68711 6.875C4.68711 6.95798 4.72007 7.03757 4.77875 7.09625C4.83743 7.15493 4.91702 7.18789 5 7.18789C5.08298 7.18789 5.16257 7.15493 5.22125 7.09625L7.09625 5.22125C7.12535 5.19222 7.14844 5.15774 7.1642 5.11977C7.17995 5.08181 7.18806 5.0411 7.18806 5C7.18806 4.9589 7.17995 4.91819 7.1642 4.88023C7.14844 4.84226 7.12535 4.80778 7.09625 4.77875L5.22125 2.90375C5.19219 2.8747 5.1577 2.85165 5.11974 2.83592C5.08178 2.8202 5.04109 2.81211 5 2.81211C4.95891 2.81211 4.91822 2.8202 4.88026 2.83592C4.8423 2.85165 4.80781 2.8747 4.77875 2.90375C4.74969 2.9328 4.72665 2.9673 4.71092 3.00526C4.6952 3.04322 4.68711 3.08391 4.68711 3.125C4.68711 3.16609 4.6952 3.20678 4.71092 3.24474C4.72665 3.2827 4.74969 3.3172 4.77875 3.34625L6.12063 4.6875H3.125C3.04212 4.6875 2.96263 4.72042 2.90403 4.77903C2.84542 4.83763 2.8125 4.91712 2.8125 5C2.8125 5.08288 2.84542 5.16237 2.90403 5.22097C2.96263 5.27958 3.04212 5.3125 3.125 5.3125H6.12063L4.77875 6.65375Z" fill="white"/>
</svg>
