<svg width="16" height="16" viewBox="0 0 16 16" fill="none" xmlns="http://www.w3.org/2000/svg">
<path d="M14 8V13C14 13.8333 13.7083 14.5417 13.125 15.125C12.5417 15.7083 11.8333 16 11 16H3C2.16667 16 1.45833 15.7083 0.875 15.125C0.291667 14.5417 0 13.8333 0 13V5C0 4.16667 0.291667 3.45833 0.875 2.875C1.45833 2.29167 2.16667 2 3 2H8C8 1.44792 8.19531 0.976562 8.58594 0.585938C8.97656 0.195312 9.44792 0 10 0H14C14.5521 0 15.0234 0.195312 15.4141 0.585938C15.8047 0.976562 16 1.44792 16 2V6C16 6.55208 15.8047 7.02344 15.4141 7.41406C15.0234 7.80469 14.5521 8 14 8ZM15 2C15 1.71875 14.901 1.48177 14.7031 1.28906C14.5052 1.09635 14.2708 1 14 1H10C9.71875 1 9.48177 1.09635 9.28906 1.28906C9.09635 1.48177 9 1.71875 9 2V6C9 6.28125 9.09635 6.51823 9.28906 6.71094C9.48177 6.90365 9.71875 7 10 7H14C14.2708 7 14.5052 6.90365 14.7031 6.71094C14.901 6.51823 15 6.28125 15 6V2ZM12.5 6C12.3646 6 12.2474 5.95052 12.1484 5.85156C12.0495 5.7526 12 5.63542 12 5.5V4H11.5C11.3646 4 11.2474 3.95052 11.1484 3.85156C11.0495 3.7526 11 3.63542 11 3.5C11 3.36458 11.0495 3.2474 11.1484 3.14844C11.2474 3.04948 11.3646 3 11.5 3L12 2.5C12 2.36458 12.0495 2.2474 12.1484 2.14844C12.2474 2.04948 12.3646 2 12.5 2C12.6354 2 12.7526 2.04948 12.8516 2.14844C12.9505 2.2474 13 2.36458 13 2.5V5.5C13 5.63542 12.9505 5.7526 12.8516 5.85156C12.7526 5.95052 12.6354 6 12.5 6Z" fill="#ACC5DB"/>
</svg>
