<svg width="16" height="16" viewBox="0 0 16 16" fill="none" xmlns="http://www.w3.org/2000/svg">
<path d="M7.54902 10.078C8.00902 10.26 8.42902 10.502 8.80702 10.803C9.18502 11.103 9.50802 11.453 9.77702 11.849C10.3257 12.6481 10.6211 13.5937 10.625 14.563V15H9.75002V14.562C9.75189 14.0448 9.65072 13.5324 9.45241 13.0548C9.25411 12.5771 8.96264 12.1438 8.59502 11.78C8.23418 11.4243 7.80985 11.1394 7.34402 10.94C6.85988 10.7326 6.33872 10.6254 5.81202 10.625C5.29484 10.6231 4.78247 10.7243 4.30481 10.9226C3.82716 11.1209 3.39379 11.4124 3.03002 11.78C2.67441 12.1409 2.3895 12.5652 2.19002 13.031C1.98402 13.505 1.88002 14.016 1.87502 14.562V15H1.00002V14.562C0.997459 13.5921 1.29353 12.6448 1.84802 11.849C2.40031 11.0522 3.1758 10.4364 4.07702 10.079C3.87228 9.93833 3.68585 9.77272 3.52202 9.586C3.36013 9.40219 3.22019 9.20017 3.10502 8.984C2.9903 8.76802 2.90296 8.53859 2.84502 8.301C2.78593 8.05897 2.75406 7.8111 2.75002 7.562C2.75002 7.139 2.83002 6.742 2.99002 6.373C3.30287 5.64192 3.88513 5.05931 4.61602 4.746C4.99308 4.58548 5.3985 4.50216 5.80831 4.50096C6.21812 4.49976 6.62401 4.5807 7.00202 4.739C7.73328 5.0521 8.31592 5.63473 8.62902 6.366C8.88795 6.97491 8.94303 7.65122 8.78602 8.294C8.72602 8.531 8.63802 8.759 8.52002 8.978C8.40277 9.19476 8.263 9.39855 8.10302 9.586C7.94302 9.773 7.75802 9.936 7.54902 10.078ZM5.81202 9.75C6.11302 9.75 6.39602 9.693 6.66002 9.58C7.18344 9.35759 7.60006 8.94062 7.82202 8.417C7.94102 8.148 8.00002 7.863 8.00002 7.563C8.0013 7.27664 7.94504 6.99295 7.83459 6.72875C7.72413 6.46455 7.56173 6.22523 7.35702 6.025C7.15453 5.82755 6.91852 5.66773 6.66002 5.553C6.39328 5.43387 6.10414 5.37317 5.81202 5.375C5.51202 5.375 5.22902 5.432 4.96502 5.545C4.4387 5.76948 4.0195 6.18868 3.79502 6.715C3.68202 6.979 3.62502 7.262 3.62502 7.563C3.62502 7.863 3.68202 8.146 3.79502 8.41C3.91002 8.674 4.06502 8.907 4.26102 9.107C4.46392 9.31204 4.70571 9.47452 4.9722 9.58493C5.2387 9.69535 5.52456 9.75146 5.81302 9.75H5.81202ZM15 1V8H13.25L10.625 10.625V8H9.75002V7.125H11.5V8.513L12.888 7.125H14.125V1.875H5.37502V3.447C5.22835 3.46553 5.08228 3.48854 4.93702 3.516C4.78807 3.54428 4.64185 3.58543 4.50002 3.639V1H15Z" fill="#ACC5DB"/>
</svg>
