<svg width="15" height="18" viewBox="0 0 15 18" fill="none" xmlns="http://www.w3.org/2000/svg">
<path d="M10.8507 2.151V15.651C10.8507 17.154 11.8403 18 12.9253 18C13.9149 18 15 17.289 15 15.651V2.25C15 0.864 14.0104 0 12.9253 0C11.8403 0 10.8507 0.954 10.8507 2.151ZM5.42535 9V15.651C5.42535 17.163 6.43229 18 7.5 18C8.48958 18 9.57465 17.289 9.57465 15.651V9.099C9.57465 7.713 8.58507 6.849 7.5 6.849C6.41493 6.849 5.42535 7.803 5.42535 9ZM2.07465 13.707C3.22049 13.707 4.14931 14.67 4.14931 15.849C4.14931 16.4195 3.93073 16.9666 3.54165 17.37C3.15258 17.7734 2.62489 18 2.07465 18C1.52442 18 0.996725 17.7734 0.607652 17.37C0.218579 16.9666 0 16.4195 0 15.849C0 14.67 0.92882 13.707 2.07465 13.707Z" fill="#BAC5FF"/>
</svg>
