<svg width="16" height="16" viewBox="0 0 16 16" fill="none" xmlns="http://www.w3.org/2000/svg">
<path d="M5.76752 8.18449C5.86852 8.62189 5.38868 8.95433 5.0154 8.72099L3.7424 7.92552L2.1528 10.4693C1.73768 11.1335 2.21749 12 3.00037 12H4.62499C4.83208 12 4.99999 12.1679 4.99999 12.375V13.625C4.99999 13.8321 4.83208 14 4.62499 14H3.00358C0.649396 14 -0.787104 11.4048 0.459584 9.41002L2.04777 6.86664L0.775115 6.07139C0.397584 5.83555 0.494927 5.26011 0.927584 5.1602L4.37249 4.36489C4.64158 4.30277 4.91002 4.47055 4.97215 4.73958L5.76752 8.18449ZM8.84755 2.46839L10.1378 4.53327L8.86471 5.3288C8.48811 5.56405 8.58346 6.13983 9.01718 6.23998L12.4621 7.0353C12.7331 7.09777 13.0001 6.92786 13.0617 6.66061L13.8571 3.2157C13.957 2.78308 13.4824 2.44323 13.1049 2.6792L11.8335 3.4737L10.544 1.40864C9.37146 -0.46739 6.63121 -0.471703 5.45599 1.40864L4.89465 2.30758C4.78496 2.4832 4.8384 2.71448 5.01402 2.82423L6.07399 3.48658C6.24961 3.59633 6.48099 3.54292 6.59074 3.3673L7.15202 2.46908C7.54927 1.83342 8.46368 1.8542 8.84755 2.46839ZM15.5402 9.41002L14.6804 8.03298C14.5707 7.85727 14.3393 7.8038 14.1636 7.91358L13.1054 8.5748C12.9298 8.68455 12.8764 8.91589 12.9861 9.09155L13.8475 10.47C14.2618 11.1329 13.7832 12 12.9995 12H9.99999V10.5006C9.99999 10.0565 9.46118 9.83242 9.14646 10.1471L6.64646 12.6465C6.45118 12.8418 6.45118 13.1584 6.64646 13.3536L9.14646 15.8533C9.45902 16.1659 9.99999 15.9469 9.99999 15.4997V14H12.9962C15.3486 14 16.788 11.4064 15.5402 9.41002Z" fill="#ACC5DB"/>
</svg>
