<svg width="21" height="14" viewBox="0 0 21 14" fill="none" xmlns="http://www.w3.org/2000/svg">
<path fill-rule="evenodd" clip-rule="evenodd" d="M1.91064 6.68205C1.91064 6.42892 2.0112 6.18615 2.19019 6.00716C2.36918 5.82817 2.61194 5.72762 2.86507 5.72762L20.0448 5.72762C20.2979 5.72762 20.5407 5.82817 20.7196 6.00716C20.8986 6.18615 20.9992 6.42892 20.9992 6.68205C20.9992 6.93518 20.8986 7.17794 20.7196 7.35693C20.5407 7.53592 20.2979 7.63647 20.0448 7.63647L2.86507 7.63647C2.61194 7.63647 2.36918 7.53592 2.19019 7.35693C2.0112 7.17794 1.91064 6.93518 1.91064 6.68205Z" fill="white"/>
<path fill-rule="evenodd" clip-rule="evenodd" d="M0.280399 7.35804C0.191516 7.26938 0.120998 7.16406 0.0728823 7.04811C0.0247668 6.93215 -2.86601e-07 6.80784 -2.92088e-07 6.6823C-2.97576e-07 6.55676 0.0247668 6.43246 0.0728823 6.3165C0.120998 6.20055 0.191516 6.09523 0.280398 6.00657L6.00696 0.280005C6.18618 0.100789 6.42925 0.000107484 6.6827 0.000107473C6.93615 0.000107462 7.17922 0.100789 7.35843 0.280005C7.53765 0.459222 7.63833 0.70229 7.63833 0.95574C7.63833 1.20919 7.53765 1.45226 7.35843 1.63147L2.30569 6.6823L7.35843 11.7331C7.53765 11.9123 7.63833 12.1554 7.63833 12.4089C7.63833 12.6623 7.53765 12.9054 7.35843 13.0846C7.17922 13.2638 6.93615 13.3645 6.6827 13.3645C6.42925 13.3645 6.18618 13.2638 6.00696 13.0846L0.280399 7.35804Z" fill="white"/>
</svg>
