<svg width="16" height="15" viewBox="0 0 16 15" fill="none" xmlns="http://www.w3.org/2000/svg">
<path d="M15 0H1C0.734784 0 0.48043 0.105357 0.292893 0.292893C0.105357 0.48043 0 0.734784 0 1V11C0 11.2652 0.105357 11.5196 0.292893 11.7071C0.48043 11.8946 0.734784 12 1 12H8.5L8.785 11.65L9.25 11.08L9.205 11H1V1H15V5.28C15.3799 5.5259 15.7175 5.83149 16 6.185V1C16 0.734784 15.8946 0.48043 15.7071 0.292893C15.5196 0.105357 15.2652 0 15 0Z" fill="#ACC5DB"/>
<path d="M2.5 3H11V3.8H2.5V3Z" fill="#ACC5DB"/>
<path d="M2.5 5H8V5.8H2.5V5Z" fill="#ACC5DB"/>
<path d="M2.5 8.5H7.5V9.3H2.5V8.5Z" fill="#ACC5DB"/>
<path d="M12.7302 5.61509C12.0903 5.61001 11.4638 5.79807 10.9326 6.15468C10.4013 6.51129 9.98998 7.01988 9.75235 7.61397C9.51471 8.20806 9.46182 8.86002 9.60059 9.48464C9.73935 10.1093 10.0633 10.6775 10.5302 11.1151L9.56015 12.3001L10.0102 14.1051L11.8402 11.8751C12.4194 12.0464 13.0359 12.0464 13.6152 11.8751L15.4452 14.1051L15.8952 12.3001L14.9252 11.1151C15.392 10.6775 15.716 10.1093 15.8547 9.48464C15.9935 8.86002 15.9406 8.20806 15.703 7.61397C15.4653 7.01988 15.054 6.51129 14.5227 6.15468C13.9915 5.79807 13.365 5.61001 12.7252 5.61509H12.7302ZM12.7302 10.9551C12.3053 10.9492 11.8916 10.8178 11.5412 10.5774C11.1908 10.3371 10.9192 9.99846 10.7607 9.6042C10.6022 9.20994 10.5638 8.77762 10.6503 8.36158C10.7368 7.94555 10.9444 7.56438 11.2469 7.26599C11.5495 6.9676 11.9335 6.76531 12.3506 6.68457C12.7678 6.60382 13.1996 6.64821 13.5916 6.81216C13.9836 6.97611 14.3185 7.2523 14.554 7.60601C14.7894 7.95972 14.9151 8.37516 14.9152 8.80009C14.9099 9.3752 14.677 9.92481 14.2675 10.3287C13.8581 10.7325 13.3053 10.9578 12.7302 10.9551Z" fill="#ACC5DB"/>
</svg>
