<svg width="10" height="7" viewBox="0 0 10 7" fill="none" xmlns="http://www.w3.org/2000/svg">
<path d="M3.66964 3.5C3.66964 3.81891 3.80497 4.12476 4.04586 4.35026C4.28675 4.57577 4.61346 4.70245 4.95412 4.70245C5.29479 4.70245 5.6215 4.57577 5.86239 4.35026C6.10327 4.12476 6.2386 3.81891 6.2386 3.5C6.2386 3.18109 6.10327 2.87524 5.86239 2.64974C5.6215 2.42423 5.29479 2.29755 4.95412 2.29755C4.61346 2.29755 4.28675 2.42423 4.04586 2.64974C3.80497 2.87524 3.66964 3.18109 3.66964 3.5ZM9.93377 3.22301C8.84655 1.07899 7.20311 0 5 0C2.79574 0 1.15344 1.07899 0.0662255 3.22408C0.0226167 3.31052 0 3.40494 0 3.50054C0 3.59614 0.0226167 3.69055 0.0662255 3.77699C1.15344 5.92101 2.79689 7 5 7C7.20425 7 8.84655 5.92101 9.93377 3.77592C10.0221 3.60199 10.0221 3.40015 9.93377 3.22301ZM4.95412 5.38957C3.83938 5.38957 2.93566 4.54356 2.93566 3.5C2.93566 2.45644 3.83938 1.61043 4.95412 1.61043C6.06887 1.61043 6.97259 2.45644 6.97259 3.5C6.97259 4.54356 6.06887 5.38957 4.95412 5.38957Z" fill="#BAC5FF"/>
</svg>
