<svg width="14" height="18" viewBox="0 0 14 18" fill="none" xmlns="http://www.w3.org/2000/svg">
<path d="M10.2993 4.98212C10.164 4.98212 10.0543 4.86015 10.0543 4.70968V4.43724H9.80937C9.67409 4.43724 9.56442 4.31526 9.56442 4.1648C9.56442 4.01433 9.67409 3.89236 9.80937 3.89236H10.0543V3.61991C10.0543 3.46945 10.164 3.34747 10.2993 3.34747C10.4346 3.34747 10.5442 3.46945 10.5442 3.61991V3.89236H10.7892C10.9245 3.89236 11.0341 4.01433 11.0341 4.1648C11.0341 4.31526 10.9245 4.43724 10.7892 4.43724H10.5442V4.70968C10.5442 4.86015 10.4346 4.98212 10.2993 4.98212Z" fill="white"/>
<path d="M0.734963 4.50388C0.59968 4.50388 0.490011 4.3819 0.490011 4.23144V3.959H0.245059C0.109776 3.959 0.000107288 3.83702 0.000107288 3.68656C0.000107288 3.53609 0.109776 3.41411 0.245059 3.41411H0.490011V3.14167C0.490011 2.99121 0.59968 2.86923 0.734963 2.86923C0.870246 2.86923 0.979915 2.99121 0.979915 3.14167V3.41411H1.22487C1.36015 3.41411 1.46982 3.53609 1.46982 3.68656C1.46982 3.83702 1.36015 3.959 1.22487 3.959H0.979915V4.23144C0.979915 4.3819 0.870246 4.50388 0.734963 4.50388Z" fill="white"/>
<path d="M6.47372 1.63465C6.33843 1.63465 6.22877 1.51267 6.22877 1.36221V1.08977H5.98381C5.84853 1.08977 5.73886 0.967789 5.73886 0.817324C5.73886 0.666859 5.84853 0.544883 5.98381 0.544883H6.22877V0.272441C6.22877 0.121976 6.33843 0 6.47372 0C6.609 0 6.71867 0.121976 6.71867 0.272441V0.544883H6.96362C7.0989 0.544883 7.20857 0.666859 7.20857 0.817324C7.20857 0.967789 7.0989 1.08977 6.96362 1.08977H6.71867V1.36221C6.71867 1.51267 6.609 1.63465 6.47372 1.63465Z" fill="white"/>
<path d="M5.72365 8.39852C5.7238 8.39847 5.7233 8.40022 5.72173 8.40391C5.72273 8.40042 5.72351 8.39857 5.72365 8.39852ZM6.07211 8.75324C6.07209 8.75325 6.07146 8.75336 6.07026 8.75351L6.07211 8.75324ZM4.49901 8.39978C4.49731 8.39573 4.49679 8.39381 4.49696 8.39386C4.49712 8.39392 4.49797 8.39594 4.49901 8.39978Z" fill="white" stroke="#D3D1E5"/>
<mask id="path-5-inside-1_1_102" fill="white">
<path d="M6.88051 6.97633C6.88051 7.30403 6.67418 7.57104 6.4193 7.57104C6.16443 7.57104 5.9581 7.30403 5.9581 6.97633C5.9581 6.64863 6.16443 6.38162 6.4193 6.38162C6.67418 6.38162 6.88051 6.64863 6.88051 6.97633Z"/>
</mask>
<path d="M6.88051 6.97633C6.88051 7.30403 6.67418 7.57104 6.4193 7.57104C6.16443 7.57104 5.9581 7.30403 5.9581 6.97633C5.9581 6.64863 6.16443 6.38162 6.4193 6.38162C6.67418 6.38162 6.88051 6.64863 6.88051 6.97633Z" fill="white"/>
<path d="M5.88051 6.97633C5.88051 6.93656 5.89193 6.86551 5.95493 6.78417C6.01888 6.70162 6.17479 6.57104 6.4193 6.57104V8.57104C7.44898 8.57104 7.88051 7.60376 7.88051 6.97633H5.88051ZM6.4193 6.57104C6.66382 6.57104 6.81972 6.70162 6.88367 6.78417C6.94668 6.86551 6.9581 6.93656 6.9581 6.97633H4.9581C4.9581 7.60376 5.38963 8.57104 6.4193 8.57104V6.57104ZM6.9581 6.97633C6.9581 7.0161 6.94668 7.08715 6.88367 7.16849C6.81972 7.25104 6.66382 7.38162 6.4193 7.38162V5.38162C5.38963 5.38162 4.9581 6.34891 4.9581 6.97633H6.9581ZM6.4193 7.38162C6.17479 7.38162 6.01888 7.25104 5.95493 7.16849C5.89193 7.08715 5.88051 7.0161 5.88051 6.97633H7.88051C7.88051 6.34891 7.44898 5.38162 6.4193 5.38162V7.38162Z" fill="#D3D1E5" mask="url(#path-5-inside-1_1_102)"/>
<mask id="path-7-inside-2_1_102" fill="white">
<path d="M4.33197 6.97633C4.33197 7.30403 4.12564 7.57104 3.87076 7.57104C3.61589 7.57104 3.40956 7.30403 3.40956 6.97633C3.40956 6.64863 3.61589 6.38162 3.87076 6.38162C4.12564 6.38162 4.33197 6.64863 4.33197 6.97633Z"/>
</mask>
<path d="M4.33197 6.97633C4.33197 7.30403 4.12564 7.57104 3.87076 7.57104C3.61589 7.57104 3.40956 7.30403 3.40956 6.97633C3.40956 6.64863 3.61589 6.38162 3.87076 6.38162C4.12564 6.38162 4.33197 6.64863 4.33197 6.97633Z" fill="white"/>
<path d="M3.33197 6.97633C3.33197 6.93656 3.34339 6.86551 3.40639 6.78417C3.47034 6.70162 3.62625 6.57104 3.87076 6.57104V8.57104C4.90044 8.57104 5.33197 7.60376 5.33197 6.97633H3.33197ZM3.87076 6.57104C4.11528 6.57104 4.27118 6.70162 4.33513 6.78417C4.39814 6.86551 4.40956 6.93656 4.40956 6.97633H2.40956C2.40956 7.60376 2.84109 8.57104 3.87076 8.57104V6.57104ZM4.40956 6.97633C4.40956 7.0161 4.39814 7.08715 4.33513 7.16849C4.27118 7.25104 4.11528 7.38162 3.87076 7.38162V5.38162C2.84109 5.38162 2.40956 6.34891 2.40956 6.97633H4.40956ZM3.87076 7.38162C3.62625 7.38162 3.47034 7.25104 3.40639 7.16849C3.34339 7.08715 3.33197 7.0161 3.33197 6.97633H5.33197C5.33197 6.34891 4.90044 5.38162 3.87076 5.38162V7.38162Z" fill="#D3D1E5" mask="url(#path-7-inside-2_1_102)"/>
<path d="M9.02126 8.90665C9.28675 8.93012 9.51723 8.84909 9.69447 8.75502C9.86936 8.6622 10.0234 8.53981 10.1424 8.4405C10.1544 8.43049 10.166 8.4208 10.1771 8.41142C10.1538 8.57444 10.1081 8.77155 10.035 8.99081L10.035 8.99079L10.0329 8.99732C9.93917 9.29184 9.73783 9.55532 9.4884 9.84557C9.46323 9.87485 9.43693 9.90516 9.41004 9.93615C9.31428 10.0465 9.21097 10.1655 9.1245 10.2782C9.01409 10.422 8.89184 10.6038 8.82888 10.8136C8.79013 10.9428 8.7762 11.0908 8.8148 11.2436C8.85401 11.3988 8.93879 11.5244 9.04254 11.6185C9.23422 11.7924 9.48795 11.8593 9.6995 11.887C10.1397 11.9446 10.725 11.8729 11.3427 11.7073C11.9344 11.5487 12.4828 11.413 12.9259 11.3632C13.0142 11.3532 13.0943 11.3472 13.1664 11.3448C13.1251 11.3727 13.0807 11.4021 13.033 11.4331C12.9547 11.484 12.8658 11.5402 12.7731 11.5987C12.6136 11.6995 12.443 11.8073 12.2959 11.9073C12.0667 12.0631 11.8032 12.2584 11.6386 12.4779L11.6386 12.4778L11.6357 12.4818C11.5452 12.6049 11.4628 12.767 11.4578 12.9617C11.4525 13.168 11.5355 13.333 11.632 13.4493C11.721 13.5565 11.829 13.6326 11.913 13.685C11.9996 13.739 12.0943 13.7878 12.1734 13.8283L12.1736 13.8284C12.3505 13.9189 12.4747 13.9825 12.5678 14.0582C12.598 14.0828 12.6179 14.1032 12.6312 14.12C12.616 14.13 12.5967 14.1418 12.5723 14.1552C12.4067 14.2467 12.1513 14.3305 11.8319 14.4181C11.7425 14.4427 11.6463 14.4679 11.5481 14.4937C11.3262 14.5519 11.0934 14.613 10.9022 14.6756C10.7605 14.7219 10.6116 14.7781 10.4825 14.8493C10.3679 14.9126 10.1877 15.0306 10.0918 15.2385L10.0918 15.2384L10.0898 15.2428C9.97692 15.4936 9.98322 15.7432 10.0724 15.9642C10.1508 16.1587 10.2848 16.3088 10.3835 16.4099C10.4322 16.46 10.4834 16.5087 10.5273 16.5506L10.536 16.5589C10.5844 16.605 10.6249 16.6439 10.6616 16.6821C10.6778 16.6989 10.6918 16.7143 10.704 16.7281C10.6411 16.7692 10.5332 16.823 10.3586 16.8722C9.81762 17.0246 8.79973 17.0861 7.09092 16.7765C4.59253 16.3222 3.19679 14.7504 2.73838 13.7057L2.73776 13.7043C2.11603 12.2992 1.74792 11.7025 0.960687 10.5339C0.634626 10.0416 0.506441 9.51742 0.500237 9.10797C0.498101 8.96698 0.51054 8.84747 0.530202 8.75288C0.545512 8.77079 0.561805 8.79023 0.579147 8.8113C0.598582 8.83491 0.620252 8.86177 0.643481 8.89057C0.720851 8.98649 0.815517 9.10385 0.902541 9.19384C0.962165 9.25549 1.04069 9.32893 1.13474 9.38772C1.22682 9.44528 1.37701 9.51583 1.56496 9.50191C1.75936 9.48751 1.95782 9.41008 2.11456 9.22765C2.24662 9.07394 2.31845 8.87931 2.36785 8.69296C2.46721 8.31819 2.53676 7.72058 2.6206 6.81624C2.77719 5.12729 3.80388 3.84747 5.30261 3.84747C6.53787 3.84747 7.19217 4.34708 7.56499 4.90328C7.95932 5.49156 8.07043 6.19555 8.09244 6.60288C8.10182 6.7763 8.10396 6.9481 8.10616 7.12422C8.10664 7.1631 8.10713 7.20218 8.1077 7.24154C8.11071 7.45019 8.11601 7.67221 8.14109 7.87284C8.16522 8.06587 8.21378 8.29911 8.3417 8.49825C8.48908 8.7277 8.72217 8.8805 9.02126 8.90665ZM9.02126 8.90665C9.02142 8.90666 9.02158 8.90667 9.02174 8.90669L9.06505 8.40857L9.02079 8.9066C9.02094 8.90662 9.0211 8.90663 9.02126 8.90665ZM13.5314 11.0503C13.5315 11.0503 13.531 11.0511 13.5298 11.0527C13.5308 11.0511 13.5314 11.0503 13.5314 11.0503ZM12.682 14.0786C12.6825 14.0786 12.6807 14.0815 12.6748 14.0871C12.6785 14.0814 12.6814 14.0786 12.682 14.0786Z" stroke="#D3D1E5"/>
</svg>
