<svg width="16" height="14" viewBox="0 0 16 14" fill="none" xmlns="http://www.w3.org/2000/svg">
<path d="M11.5411 0C10.0167 0 8.71418 1.08813 7.99855 1.83831C7.28291 1.08813 5.98327 0 4.45964 0C1.83345 0 0 1.83321 0 4.45739C0 7.34887 2.27709 9.21777 4.48 11.0255C5.52 11.8798 6.59636 12.7626 7.42182 13.7414C7.56073 13.9053 7.76436 14 7.97818 14H8.02036C8.23491 14 8.43782 13.9046 8.576 13.7414C9.40291 12.7626 10.4785 11.8791 11.5193 11.0255C13.7215 9.2185 16 7.3496 16 4.45739C16 1.83321 14.1665 0 11.5411 0V0Z" fill="#C8135F"/>
</svg>
