<svg width="14" height="13" viewBox="0 0 14 13" fill="none" xmlns="http://www.w3.org/2000/svg">
<path d="M2 6H5V7H2V6Z" fill="#ACC5DB"/>
<path d="M2 4H7V5H2V4Z" fill="#ACC5DB"/>
<path d="M2 2H7V3H2V2Z" fill="#ACC5DB"/>
<path d="M6 11H1V1H13V6H14V1C14 0.734784 13.8946 0.48043 13.7071 0.292893C13.5196 0.105357 13.2652 0 13 0H1C0.734784 0 0.48043 0.105357 0.292893 0.292893C0.105357 0.48043 0 0.734784 0 1V11C0 11.2652 0.105357 11.5196 0.292893 11.7071C0.48043 11.8946 0.734784 12 1 12H6V11Z" fill="#ACC5DB"/>
<path d="M10 10.795L8.705 9.5L8 10.205L10 12.205L14 8.205L13.295 7.5L10 10.795Z" fill="#ACC5DB"/>
</svg>
