<svg width="18" height="18" viewBox="0 0 18 18" fill="none" xmlns="http://www.w3.org/2000/svg">
<path d="M15.8228 6.0299C14.2388 2.3439 11.6908 -0.460097 10.4018 0.062903C8.21281 0.953903 11.7058 5.2269 0.95481 9.5959C0.0258101 9.9749 -0.20919 11.4839 0.17981 12.3879C0.56781 13.2899 1.83781 14.1889 2.76681 13.8119C2.92781 13.7459 3.51781 13.5559 3.51781 13.5559C4.18081 14.4469 4.87481 13.9189 5.12181 14.4839L6.27981 17.1439C6.49881 17.6459 6.99481 18.1109 7.35481 17.9739L9.40481 17.1949C9.87281 17.0169 9.98381 16.5989 9.84081 16.2709C9.68681 15.9159 9.05481 15.8119 8.87381 15.3979C8.69381 14.9859 8.10481 13.6599 7.93581 13.2419C7.70581 12.6739 8.19481 12.2109 8.90581 12.1379C13.7998 11.6259 14.7148 14.6499 16.3808 13.9719C17.6678 13.4469 17.4058 9.7129 15.8228 6.0299ZM15.2718 12.0059C14.9848 12.1209 13.0588 10.6039 11.8288 7.7389C10.5978 4.8759 10.7528 2.2589 11.0388 2.1419C11.3248 2.0269 13.2038 3.8589 14.4338 6.7219C15.6648 9.5849 15.5578 11.8889 15.2718 12.0059Z" fill="#ACC5DB"/>
</svg>
