<svg width="16" height="16" viewBox="0 0 16 16" fill="none" xmlns="http://www.w3.org/2000/svg">
<path d="M12 0H5V6H5.7L5.9 6.7L6 6.8V1H11V5H15V14H9L9.3 14.5L8.8 15H16V4L12 0ZM12 4V1L15 4H12Z" fill="#ACC5DB"/>
<path d="M5.5 11.5C5.5 11.7652 5.39464 12.0196 5.20711 12.2071C5.01957 12.3946 4.76522 12.5 4.5 12.5C4.23478 12.5 3.98043 12.3946 3.79289 12.2071C3.60536 12.0196 3.5 11.7652 3.5 11.5C3.5 11.2348 3.60536 10.9804 3.79289 10.7929C3.98043 10.6054 4.23478 10.5 4.5 10.5C4.76522 10.5 5.01957 10.6054 5.20711 10.7929C5.39464 10.9804 5.5 11.2348 5.5 11.5Z" fill="#ACC5DB"/>
<path d="M7.9 12.4L9 12V11L7.9 10.6C7.8 10.3 7.7 10 7.5 9.7L8 8.7L7.3 8L6.3 8.5C6 8.3 5.7 8.2 5.4 8.1L5 7H4L3.6 8.1C3.3 8.2 3 8.3 2.7 8.5L1.7 8L1 8.7L1.5 9.8C1.3 10.1 1.2 10.4 1.1 10.7L0 11V12L1.1 12.4C1.2 12.7 1.3 13 1.5 13.3L1 14.3L1.7 15L2.8 14.5C3.1 14.7 3.4 14.8 3.7 14.9L4 16H5L5.4 14.9C5.7 14.8 6 14.7 6.3 14.5L7.3 15L8 14.3L7.5 13.2C7.7 13 7.8 12.7 7.9 12.4ZM4.5 13.5C3.4 13.5 2.5 12.6 2.5 11.5C2.5 10.4 3.4 9.5 4.5 9.5C5.6 9.5 6.5 10.4 6.5 11.5C6.5 12.6 5.6 13.5 4.5 13.5Z" fill="#ACC5DB"/>
</svg>
