<svg width="28" height="21" viewBox="0 0 28 21" fill="none" xmlns="http://www.w3.org/2000/svg">
<path d="M12 12H6V9C6 8.46957 6.21071 7.96086 6.58579 7.58579C6.96086 7.21071 7.46957 7 8 7C8.53043 7 9.03914 7.21071 9.41421 7.58579C9.78929 7.96086 10 8.46957 10 9H11C11 8.20435 10.6839 7.44129 10.1213 6.87868C9.55871 6.31607 8.79565 6 8 6C7.20435 6 6.44129 6.31607 5.87868 6.87868C5.31607 7.44129 5 8.20435 5 9V12H4C3.73478 12 3.48043 12.1054 3.29289 12.2929C3.10536 12.4804 3 12.7348 3 13V19C3 19.2652 3.10536 19.5196 3.29289 19.7071C3.48043 19.8946 3.73478 20 4 20H12C12.2652 20 12.5196 19.8946 12.7071 19.7071C12.8946 19.5196 13 19.2652 13 19V13C13 12.7348 12.8946 12.4804 12.7071 12.2929C12.5196 12.1054 12.2652 12 12 12ZM12 19H4V13H12V19Z" fill="white"/>
<path d="M23.333 3.33301C23.6866 3.33301 24.0258 3.47348 24.2758 3.72353C24.5259 3.97358 24.6663 4.31272 24.6663 4.66634V13.333C24.6663 13.6866 24.5259 14.0258 24.2758 14.2758C24.0258 14.5259 23.6866 14.6663 23.333 14.6663H18.6663C18.3127 14.6663 17.9736 14.5259 17.7235 14.2758C17.4735 14.0258 17.333 13.6866 17.333 13.333H23.333V3.33301Z" fill="white"/>
<path d="M20.6663 2.66634H15.333C15.333 2.31272 15.4735 1.97358 15.7235 1.72353C15.9736 1.47348 16.3127 1.33301 16.6663 1.33301H20.6663C21.02 1.33301 21.3591 1.47348 21.6091 1.72353C21.8592 1.97358 21.9997 2.31272 21.9997 2.66634V10.6663C21.9997 11.02 21.8592 11.3591 21.6091 11.6091C21.3591 11.8592 21.02 11.9997 20.6663 11.9997V2.66634Z" fill="white"/>
<path d="M16.6663 10.6663H21.9997C21.9997 11.02 21.8592 11.3591 21.6091 11.6091C21.3591 11.8592 21.02 11.9997 20.6663 11.9997H16.6663C16.3127 11.9997 15.9736 11.8592 15.7235 11.6091C15.4735 11.3591 15.333 11.02 15.333 10.6663V2.66634C15.333 2.31272 15.4735 1.97358 15.7235 1.72353C15.9736 1.47348 16.3127 1.33301 16.6663 1.33301V10.6663Z" fill="white"/>
</svg>
