<svg width="19" height="18" viewBox="0 0 19 18" fill="none" xmlns="http://www.w3.org/2000/svg">
<path d="M7.25068 0C6.5799 0 5.99105 0.3375 5.57526 0.77325C5.15947 1.20975 4.86007 1.755 4.59437 2.34375C4.18776 3.25125 3.89755 4.26 3.63721 5.2035C2.80563 5.4405 2.09963 5.736 1.53146 6.09375C0.867569 6.513 0.310885 7.09275 0.310885 7.875C0.310885 8.5545 0.735864 9.09975 1.26804 9.492C1.72289 9.8265 2.28187 10.1047 2.94346 10.3357C2.98174 10.5082 3.03917 10.6845 3.11039 10.8517C2.46488 11.2087 1.4411 11.9002 0.454842 13.2188L0 13.8517L0.646274 14.2965L3.15786 15.984L2.13025 18H16.8705L15.8414 15.984L18.3545 14.2965L19 13.8517L18.5459 13.2188C17.5581 11.9002 16.5359 11.2087 15.8888 10.8517C15.9616 10.6845 16.0183 10.509 16.0573 10.3357C16.7181 10.1047 17.2771 9.82575 17.732 9.492C18.2641 9.09975 18.6891 8.5545 18.6891 7.875C18.6891 7.09275 18.1324 6.513 17.4685 6.09375C16.9004 5.736 16.1944 5.4405 15.3628 5.20275C15.0756 4.22475 14.7586 3.1995 14.3582 2.29725C14.0978 1.71375 13.8107 1.1775 13.401 0.75C12.9913 0.3225 12.4079 0 11.7493 0C11.3037 0 10.966 0.12 10.6007 0.21075C10.2362 0.3015 9.86793 0.375 9.50038 0.375C8.76528 0.375 8.14811 0 7.25068 0ZM7.25068 1.5C7.40918 1.5 8.35102 1.875 9.49962 1.875C10.0739 1.875 10.5854 1.761 10.9836 1.66425C11.381 1.56675 11.6835 1.5 11.7493 1.5C11.9254 1.5 12.0571 1.5555 12.2754 1.78125C12.4936 2.00625 12.7509 2.41425 12.9691 2.90625C13.3849 3.83775 13.7019 5.10975 14.0465 6.28125C14.0465 6.27825 14.0879 6.246 13.9745 6.3045C13.7831 6.40725 13.3819 6.53925 12.8972 6.609C11.9254 6.753 10.6 6.75 9.49962 6.75C8.40463 6.75 7.07686 6.735 6.10132 6.58575C5.61432 6.513 5.2192 6.38325 5.0247 6.28125C4.96498 6.249 4.9443 6.261 4.92899 6.258V6.23475C4.93205 6.22875 4.92593 6.21675 4.92899 6.21075L4.95273 6.1875C5.01002 6.08663 5.04302 5.97427 5.04921 5.859V5.8365C5.3241 4.83975 5.63193 3.78525 6.00637 2.95275C6.22996 2.4525 6.4727 2.04525 6.70012 1.80525C6.92754 1.5645 7.08298 1.5 7.25068 1.5ZM3.51699 6.8205C3.69081 7.17225 3.99633 7.4535 4.30722 7.617C4.77431 7.86 5.30879 7.97475 5.88615 8.0625C7.04087 8.238 8.39314 8.25 9.49962 8.25C10.6007 8.25 11.9553 8.256 13.1131 8.08575C13.6935 8.001 14.2226 7.89 14.692 7.64025C15.006 7.47375 15.3115 7.1775 15.4822 6.8205C15.9547 6.98475 16.3521 7.16025 16.6308 7.33575C17.0765 7.617 17.1569 7.8255 17.1569 7.875C17.1569 7.91925 17.1186 8.0625 16.7978 8.29725C16.4777 8.53125 15.9279 8.8035 15.2188 9.02325C13.8007 9.46575 11.7608 9.75 9.49962 9.75C7.23842 9.75 5.19853 9.46575 3.7804 9.02325C3.07133 8.8035 2.52154 8.53125 2.20147 8.29725C1.88063 8.0625 1.84234 7.91925 1.84234 7.875C1.84234 7.8255 1.90207 7.638 2.34466 7.359C2.62338 7.1835 3.03228 6.993 3.51699 6.8205ZM5.50328 10.9222C5.75444 10.9627 6.00331 11.0302 6.26901 11.0625C6.36856 11.7217 6.89155 12.3015 7.72849 12.3517C8.37476 12.3892 9.10144 12.0907 9.16499 11.25H9.83501C9.8978 12.0907 10.6237 12.39 11.2707 12.3517C12.1077 12.3015 12.6314 11.7217 12.7302 11.0625C12.9959 11.0302 13.2448 10.9628 13.4959 10.9215L13.424 11.3902C13.1874 12.624 12.6253 13.7662 11.9163 14.5552C11.2072 15.342 10.3764 15.7612 9.49962 15.75C8.59912 15.738 7.78592 15.3135 7.08298 14.5312C6.38004 13.749 5.82719 12.63 5.57526 11.3902L5.50328 10.9222ZM14.8597 12C15.1438 12.1642 15.8919 12.645 16.7503 13.5705L14.4286 15.1403L13.8788 15.4927L14.166 16.0777L14.3811 16.5H11.9645C12.3716 16.2271 12.7414 15.9042 13.0648 15.5392C13.9087 14.6017 14.4738 13.374 14.7877 12.0465C14.8145 12.0323 14.836 12.015 14.8597 12ZM4.11579 12.0232C4.14565 12.0412 4.18164 12.0532 4.2115 12.0705C4.54076 13.38 5.10281 14.5927 5.93439 15.5152C6.2782 15.8992 6.67868 16.2277 7.10672 16.5H4.6181L4.83327 16.0777L5.12042 15.4927L4.56986 15.1403L2.24971 13.5705C3.05985 12.6945 3.79878 12.2107 4.11579 12.0232Z" fill="white"/>
</svg>
