<svg width="24" height="20" viewBox="0 0 24 20" fill="none" xmlns="http://www.w3.org/2000/svg">
<g clip-path="url(#clip0_7_18)">
<path d="M23.4141 10.9312C23.1194 10.2331 22.6916 9.59891 22.1547 9.06406C21.6195 8.52767 20.9854 8.10001 20.2875 7.80469C20.2813 7.80156 20.275 7.8 20.2688 7.79688C21.2422 7.09375 21.875 5.94844 21.875 4.65625C21.875 2.51562 20.1407 0.78125 18 0.78125C15.8594 0.78125 14.125 2.51562 14.125 4.65625C14.125 5.94844 14.7579 7.09375 15.7313 7.79844C15.725 7.80156 15.7188 7.80312 15.7125 7.80625C15.0125 8.10156 14.3844 8.525 13.8454 9.06563C13.309 9.60089 12.8813 10.235 12.586 10.9328C12.2959 11.616 12.1394 12.3485 12.125 13.0906C12.1246 13.1073 12.1275 13.1239 12.1336 13.1394C12.1397 13.1549 12.1489 13.1691 12.1605 13.181C12.1722 13.193 12.1861 13.2025 12.2015 13.2089C12.2168 13.2154 12.2334 13.2188 12.25 13.2188H13.1875C13.2563 13.2188 13.311 13.1641 13.3125 13.0969C13.3438 11.8906 13.8282 10.7609 14.6844 9.90469C15.5704 9.01875 16.7469 8.53125 18 8.53125C19.2532 8.53125 20.4297 9.01875 21.3157 9.90469C22.1719 10.7609 22.6563 11.8906 22.6875 13.0969C22.6891 13.1656 22.7438 13.2188 22.8125 13.2188H23.75C23.7667 13.2188 23.7832 13.2154 23.7986 13.2089C23.814 13.2025 23.8279 13.193 23.8396 13.181C23.8512 13.1691 23.8603 13.1549 23.8664 13.1394C23.8725 13.1239 23.8755 13.1073 23.875 13.0906C23.8594 12.3438 23.7047 11.6172 23.4141 10.9312ZM18 7.34375C17.2829 7.34375 16.6079 7.06406 16.1 6.55625C15.5922 6.04844 15.3125 5.37344 15.3125 4.65625C15.3125 3.93906 15.5922 3.26406 16.1 2.75625C16.6079 2.24844 17.2829 1.96875 18 1.96875C18.7172 1.96875 19.3922 2.24844 19.9 2.75625C20.4079 3.26406 20.6875 3.93906 20.6875 4.65625C20.6875 5.37344 20.4079 6.04844 19.9 6.55625C19.3922 7.06406 18.7172 7.34375 18 7.34375Z" fill="white"/>
<path d="M9 12H3V9C3 8.46957 3.21071 7.96086 3.58579 7.58579C3.96086 7.21071 4.46957 7 5 7C5.53043 7 6.03914 7.21071 6.41421 7.58579C6.78929 7.96086 7 8.46957 7 9H8C8 8.20435 7.68393 7.44129 7.12132 6.87868C6.55871 6.31607 5.79565 6 5 6C4.20435 6 3.44129 6.31607 2.87868 6.87868C2.31607 7.44129 2 8.20435 2 9V12H1C0.734784 12 0.48043 12.1054 0.292893 12.2929C0.105357 12.4804 0 12.7348 0 13V19C0 19.2652 0.105357 19.5196 0.292893 19.7071C0.48043 19.8946 0.734784 20 1 20H9C9.26522 20 9.51957 19.8946 9.70711 19.7071C9.89464 19.5196 10 19.2652 10 19V13C10 12.7348 9.89464 12.4804 9.70711 12.2929C9.51957 12.1054 9.26522 12 9 12ZM9 19H1V13H9V19Z" fill="white"/>
</g>
<defs>
<clipPath id="clip0_7_18">
<rect width="24" height="20" fill="white"/>
</clipPath>
</defs>
</svg>
