<svg width="27" height="27" viewBox="0 0 27 27" fill="none" xmlns="http://www.w3.org/2000/svg">
<g clip-path="url(#clip0_2223_8760)">
<path d="M13.5 0C6.075 0 0 6.075 0 13.5C0 20.925 6.075 27 13.5 27C20.925 27 27 20.925 27 13.5C27 6.075 20.925 0 13.5 0ZM13.5 3.375C15.7275 3.375 17.7525 4.08375 19.4062 5.265L5.265 19.4062C4.08375 17.7525 3.375 15.7275 3.375 13.5C3.375 7.8975 7.8975 3.375 13.5 3.375ZM21.735 7.59375C22.9163 9.2475 23.625 11.2725 23.625 13.5C23.625 19.1025 19.1025 23.625 13.5 23.625C11.2725 23.625 9.2475 22.9163 7.59375 21.735L21.735 7.59375Z" fill="white"/>
<path d="M10.0351 15.6157H7.62683L7.12298 16.9229H6L8.34845 11.3085H9.31771L11.6704 16.9229H10.5432L10.0351 15.6157ZM7.93 14.829H9.7319L8.83095 12.5L7.93 14.829Z" fill="white"/>
<path d="M12.1721 14.8059C12.1721 14.1632 12.3372 13.6478 12.6674 13.2596C12.9976 12.8689 13.4402 12.6735 13.9953 12.6735C14.4849 12.6735 14.8806 12.8278 15.1823 13.1362V11H16.2199V16.9229H15.2806L15.2293 16.491C14.919 16.8303 14.5049 17 13.9868 17C13.4459 17 13.0075 16.8033 12.6716 16.41C12.3386 16.0167 12.1721 15.482 12.1721 14.8059ZM13.2096 14.8869C13.2096 15.3111 13.2993 15.6427 13.4787 15.8817C13.6608 16.1183 13.9185 16.2365 14.2515 16.2365C14.6756 16.2365 14.9859 16.0656 15.1823 15.7237V13.9422C14.9916 13.608 14.6842 13.4409 14.26 13.4409C13.9241 13.4409 13.6651 13.5617 13.4829 13.8033C13.3007 14.0424 13.2096 14.4036 13.2096 14.8869Z" fill="white"/>
<path d="M19.9795 15.7892C19.9795 15.6221 19.9026 15.4949 19.7489 15.4075C19.598 15.3201 19.3461 15.2429 18.9931 15.1761C18.6402 15.1093 18.3455 15.0244 18.1093 14.9216C17.5912 14.6954 17.3322 14.3676 17.3322 13.9383C17.3322 13.5784 17.5001 13.2776 17.836 13.036C18.1719 12.7943 18.5989 12.6735 19.117 12.6735C19.6692 12.6735 20.1147 12.7969 20.4535 13.0437C20.795 13.2905 20.9658 13.6105 20.9658 14.0039H19.9283C19.9283 13.8239 19.8542 13.6748 19.7062 13.5566C19.5582 13.4357 19.3618 13.3753 19.117 13.3753C18.8892 13.3753 18.7028 13.4229 18.5576 13.518C18.4153 13.6131 18.3441 13.7404 18.3441 13.8997C18.3441 14.0437 18.411 14.1555 18.5448 14.2352C18.6786 14.3149 18.949 14.3959 19.3561 14.4781C19.7632 14.5578 20.082 14.6542 20.3125 14.7674C20.546 14.8779 20.7182 15.0116 20.8292 15.1684C20.9431 15.3252 21 15.5154 21 15.7391C21 16.1144 20.8278 16.419 20.4833 16.653C20.1389 16.8843 19.6877 17 19.1298 17C18.7512 17 18.4139 16.9383 18.1178 16.8149C17.8218 16.6915 17.5912 16.5219 17.4261 16.3059C17.261 16.09 17.1784 15.8573 17.1784 15.608H18.1861C18.2004 15.829 18.2929 16 18.4637 16.1208C18.6345 16.2391 18.8608 16.2982 19.1426 16.2982C19.4159 16.2982 19.6237 16.2519 19.766 16.1594C19.9083 16.0643 19.9795 15.9409 19.9795 15.7892Z" fill="white"/>
</g>
<defs>
<clipPath id="clip0_2223_8760">
<rect width="27" height="27" fill="white"/>
</clipPath>
</defs>
</svg>
