<svg width="23" height="29" viewBox="0 0 23 29" fill="none" xmlns="http://www.w3.org/2000/svg">
<g clip-path="url(#clip0_2223_8740)">
<path d="M10.2974 11.6416C10.1291 11.716 9.9706 11.8099 9.82671 11.9204C9.94776 11.9969 10.0398 12.1024 10.0941 12.2267C10.1355 12.3235 10.1533 12.4293 10.1466 12.538C10.1399 12.6467 10.1087 12.7561 10.0549 12.8601C10.0011 12.964 9.92576 13.0605 9.8331 13.1438C9.74044 13.2272 9.63231 13.2959 9.51489 13.3461C9.3633 13.4097 9.20085 13.4403 9.04307 13.4347C9.06603 13.7758 9.21308 14.0868 9.46339 14.3237C9.7137 14.5606 10.0546 14.7114 10.4377 14.7547C10.8209 14.7981 11.2269 14.7318 11.5983 14.5652C11.9697 14.3986 12.2875 14.1402 12.5069 13.8266C12.7263 13.513 12.836 13.1601 12.8206 12.8178C12.8052 12.4755 12.6654 12.1613 12.4209 11.9196C12.1765 11.6779 11.8399 11.521 11.4588 11.4711C11.0777 11.4212 10.6714 11.4808 10.2974 11.6416ZM15.3881 10.9853C13.9272 9.96107 11.8104 9.74981 9.84754 10.5877C7.8847 11.4256 6.57285 13.1013 6.30222 14.8641C6.29114 14.9393 6.30022 15.0132 6.32873 15.08C6.35725 15.1468 6.40439 15.2046 6.46636 15.2486C7.92726 16.2728 10.0441 16.484 12.0069 15.6461C13.9697 14.8082 15.2816 13.1325 15.5522 11.3698C15.5633 11.2946 15.5542 11.2206 15.5257 11.1538C15.4972 11.087 15.45 11.0293 15.3881 10.9853ZM11.737 15.0138C10.1618 15.6862 8.40848 15.5782 7.12817 14.7387C7.40752 13.2334 8.54214 11.8925 10.1175 11.22C11.6928 10.5475 13.446 10.6557 14.7263 11.4951C14.4471 13.0004 13.3123 14.3413 11.737 15.0138Z" fill="white"/>
</g>
<path fill-rule="evenodd" clip-rule="evenodd" d="M11.6732 3.40361L3.39585 6.93712C3.02997 7.09331 2.73875 7.38289 2.58626 7.74217C2.43377 8.10145 2.43249 8.50099 2.58272 8.8529L9.37981 24.7753C9.53004 25.1272 9.81945 25.4026 10.1844 25.541C10.5493 25.6794 10.9599 25.6694 11.3258 25.5132L19.6031 21.9797C19.969 21.8235 20.2602 21.534 20.4127 21.1747C20.5652 20.8154 20.5665 20.4159 20.4163 20.0639L13.6192 4.14156C13.4689 3.78965 13.1795 3.51421 12.8146 3.37581C12.4496 3.23742 12.0391 3.24742 11.6732 3.40361ZM2.82943 5.61025C2.09766 5.92263 1.51523 6.50181 1.21024 7.22037C0.905258 7.93892 0.902711 8.738 1.20316 9.44182L8.00025 25.3642C8.3007 26.068 8.87954 26.6189 9.60942 26.8957C10.3393 27.1725 11.1605 27.1525 11.8922 26.8401L20.1696 23.3066C20.9013 22.9942 21.4838 22.415 21.7887 21.6965C22.0937 20.9779 22.0963 20.1788 21.7958 19.475L14.9987 3.55264C14.6983 2.84883 14.1194 2.29794 13.3896 2.02115C12.6597 1.74437 11.8385 1.76436 11.1068 2.07675L2.82943 5.61025Z" fill="white"/>
<path fill-rule="evenodd" clip-rule="evenodd" d="M14.8981 22.4193C15.264 22.2631 15.5552 21.9735 15.7077 21.6142C15.8602 21.255 15.8615 20.8554 15.7113 20.5035C15.5611 20.1516 15.2716 19.8762 14.9067 19.7378C14.5418 19.5994 14.1312 19.6094 13.7653 19.7656C13.3994 19.9218 13.1082 20.2114 12.9557 20.5706C12.8032 20.9299 12.8019 21.3295 12.9522 21.6814C13.1024 22.0333 13.3918 22.3087 13.7568 22.4471C14.1217 22.5855 14.5323 22.5755 14.8981 22.4193Z" fill="white"/>
<defs>
<clipPath id="clip0_2223_8740">
<rect width="10" height="7.33333" fill="white" transform="translate(4.88867 11.708) rotate(-23.1171)"/>
</clipPath>
</defs>
</svg>
