<svg width="14" height="15" viewBox="0 0 14 15" fill="none" xmlns="http://www.w3.org/2000/svg">
<path fill-rule="evenodd" clip-rule="evenodd" d="M1.625 15C1.625 15 0.5 15 0.5 13.8125C0.5 12.625 1.625 9.0625 7.25 9.0625C12.875 9.0625 14 12.625 14 13.8125C14 15 12.875 15 12.875 15H1.625ZM7.25 7.875C8.14511 7.875 9.00355 7.49967 9.63649 6.83157C10.2694 6.16347 10.625 5.25733 10.625 4.3125C10.625 3.36767 10.2694 2.46153 9.63649 1.79343C9.00355 1.12533 8.14511 0.75 7.25 0.75C6.35489 0.75 5.49645 1.12533 4.86351 1.79343C4.23058 2.46153 3.875 3.36767 3.875 4.3125C3.875 5.25733 4.23058 6.16347 4.86351 6.83157C5.49645 7.49967 6.35489 7.875 7.25 7.875Z" fill="#858EAA"/>
</svg>
