<svg width="10" height="11" viewBox="0 0 10 11" fill="none" xmlns="http://www.w3.org/2000/svg">
<path d="M0.0996096 2.22304V9.69904C0.0994842 9.91325 0.155529 10.1237 0.262153 10.3095C0.368776 10.4953 0.522252 10.6499 0.707267 10.7578C0.892282 10.8658 1.10237 10.9233 1.31657 10.9247C1.53077 10.9261 1.74159 10.8714 1.92801 10.7658L9.00361 6.76044C9.19762 6.65064 9.35798 6.48998 9.46743 6.29577C9.57687 6.10156 9.63125 5.88117 9.62469 5.65834C9.61814 5.43551 9.5509 5.2187 9.43023 5.03125C9.30956 4.84381 9.14003 4.69285 8.93991 4.59464L1.86431 1.12334C1.67755 1.03169 1.47052 0.989104 1.26275 0.99961C1.05497 1.01012 0.853296 1.07336 0.676733 1.18339C0.50017 1.29342 0.354537 1.4466 0.253566 1.6285C0.152594 1.81039 0.0996103 2.015 0.0996096 2.22304Z" fill="#41FFB9"/>
</svg>
