<svg width="16" height="14" viewBox="0 0 16 14" fill="none" xmlns="http://www.w3.org/2000/svg">
<path d="M8.00012 0C3.58137 0 0.000120881 2.90937 0.000120881 6.5C0.000120881 7.9875 0.621996 9.35 1.65325 10.4469C1.18762 11.6781 0.218871 12.7219 0.203246 12.7344C-0.00300412 12.9531 -0.0592541 13.2719 0.0594959 13.5469C0.178246 13.8219 0.450121 14 0.750121 14C2.672 14 4.18762 13.1969 5.097 12.5531C6.00012 12.8375 6.97512 13 8.00012 13C12.4189 13 16.0001 10.0906 16.0001 6.5C16.0001 2.90937 12.4189 0 8.00012 0ZM8.00012 11.5C7.16575 11.5 6.34075 11.3719 5.55012 11.1219L4.84075 10.8969L4.23137 11.3281C3.7845 11.6438 3.172 11.9969 2.4345 12.2344C2.66262 11.8562 2.8845 11.4312 3.05637 10.9781L3.38762 10.1L2.74387 9.41875C2.17825 8.81563 1.50012 7.81875 1.50012 6.5C1.50012 3.74375 4.41575 1.5 8.00012 1.5C11.5845 1.5 14.5001 3.74375 14.5001 6.5C14.5001 9.25625 11.5845 11.5 8.00012 11.5Z" fill="#2E2441"/>
</svg>
