<svg width="25" height="24" viewBox="0 0 25 24" fill="none" xmlns="http://www.w3.org/2000/svg">
<path d="M9.54036 0C8.65776 0 7.88297 0.45 7.33587 1.031C6.78878 1.613 6.39483 2.34 6.04522 3.125C5.51022 4.335 5.12836 5.68 4.7858 6.938C3.69161 7.254 2.76266 7.648 2.01507 8.125C1.14154 8.684 0.40906 9.457 0.40906 10.5C0.40906 11.406 0.968242 12.133 1.66848 12.656C2.26696 13.102 3.00246 13.473 3.87297 13.781C3.92335 14.011 3.99891 14.246 4.09261 14.469C3.24326 14.945 1.89618 15.867 0.598477 17.625L0 18.469L0.850361 19.062L4.15508 21.312L2.80297 24H22.198L20.8439 21.312L24.1506 19.062L25 18.469L24.4025 17.625C23.1028 15.867 21.7577 14.945 20.9064 14.469C21.0021 14.246 21.0767 14.012 21.128 13.781C21.9975 13.473 22.733 13.101 23.3315 12.656C24.0318 12.133 24.5909 11.406 24.5909 10.5C24.5909 9.457 23.8585 8.684 22.9849 8.125C22.2373 7.648 21.3084 7.254 20.2142 6.937C19.8364 5.633 19.4193 4.266 18.8923 3.063C18.5498 2.285 18.1719 1.57 17.6329 1C17.0939 0.43 16.3261 0 15.4596 0C14.8733 0 14.4289 0.16 13.9483 0.281C13.4687 0.402 12.9841 0.5 12.5005 0.5C11.5333 0.5 10.7212 0 9.54036 0ZM9.54036 2C9.74892 2 10.9882 2.5 12.4995 2.5C13.2551 2.5 13.9282 2.348 14.4521 2.219C14.975 2.089 15.373 2 15.4596 2C15.6914 2 15.8647 2.074 16.1518 2.375C16.439 2.675 16.7775 3.219 17.0646 3.875C17.6117 5.117 18.0289 6.813 18.4822 8.375C18.4822 8.371 18.5367 8.328 18.3875 8.406C18.1357 8.543 17.6077 8.719 16.9699 8.812C15.6914 9.004 13.9473 9 12.4995 9C11.0587 9 9.31165 8.98 8.02805 8.781C7.38726 8.684 6.86737 8.511 6.61145 8.375C6.53287 8.332 6.50566 8.348 6.48551 8.344V8.313C6.48954 8.305 6.48148 8.289 6.48551 8.281L6.51675 8.25C6.59213 8.11551 6.63555 7.96569 6.64369 7.812V7.782C7.0054 6.453 7.41043 5.047 7.90312 3.937C8.19732 3.27 8.51671 2.727 8.81594 2.407C9.11518 2.086 9.31971 2 9.54036 2ZM4.62761 9.094C4.85633 9.563 5.25833 9.938 5.66739 10.156C6.28199 10.48 6.98525 10.633 7.74493 10.75C9.2643 10.984 11.0436 11 12.4995 11C13.9483 11 15.7307 11.008 17.2541 10.781C18.0178 10.668 18.714 10.52 19.3316 10.187C19.7447 9.965 20.1467 9.57 20.3714 9.094C20.993 9.313 21.5159 9.547 21.8827 9.781C22.4691 10.156 22.5749 10.434 22.5749 10.5C22.5749 10.559 22.5245 10.75 22.1023 11.063C21.6812 11.375 20.9578 11.738 20.0248 12.031C18.1588 12.621 15.4748 13 12.4995 13C9.52424 13 6.84017 12.621 4.97421 12.031C4.04123 11.738 3.31782 11.375 2.89667 11.063C2.47451 10.75 2.42413 10.559 2.42413 10.5C2.42413 10.434 2.50272 10.184 3.08508 9.812C3.45182 9.578 3.98984 9.324 4.62761 9.094ZM7.24116 14.563C7.57164 14.617 7.89909 14.707 8.2487 14.75C8.37968 15.629 9.06783 16.402 10.1691 16.469C11.0194 16.519 11.9756 16.121 12.0592 15H12.9408C13.0234 16.121 13.9786 16.52 14.8299 16.469C15.9312 16.402 16.6203 15.629 16.7503 14.75C17.0999 14.707 17.4274 14.617 17.7578 14.562L17.6631 15.187C17.3518 16.832 16.6123 18.355 15.6793 19.407C14.7463 20.456 13.6531 21.015 12.4995 21C11.3146 20.984 10.2446 20.418 9.31971 19.375C8.39479 18.332 7.66735 16.84 7.33587 15.187L7.24116 14.563ZM19.5523 16C19.926 16.219 20.9104 16.86 22.0399 18.094L18.985 20.187L18.2616 20.657L18.6394 21.437L18.9225 22H15.7428C16.2785 21.6361 16.7651 21.2056 17.1906 20.719C18.3009 19.469 19.0445 17.832 19.4575 16.062C19.4928 16.043 19.521 16.02 19.5523 16ZM5.41551 16.031C5.4548 16.055 5.50216 16.071 5.54145 16.094C5.97469 17.84 6.71422 19.457 7.80841 20.687C8.26079 21.199 8.78773 21.637 9.35095 22H6.07645L6.35957 21.437L6.7374 20.657L6.01298 20.187L2.96014 18.094C4.02612 16.926 4.99839 16.281 5.41551 16.031Z" fill="#707590"/>
</svg>
