<svg width="12" height="12" viewBox="0 0 12 12" fill="none" xmlns="http://www.w3.org/2000/svg">
<path d="M11.25 10.5H10.5V11.25C10.5 11.4609 10.4258 11.6387 10.2773 11.7832C10.1289 11.9277 9.95117 12 9.74414 12C9.53711 12 9.36133 11.9277 9.2168 11.7832C9.07227 11.6387 9 11.4609 9 11.25V10.5H8.25C8.03906 10.5 7.86133 10.4258 7.7168 10.2773C7.57227 10.1289 7.5 9.95117 7.5 9.74414C7.5 9.53711 7.57227 9.36133 7.7168 9.2168C7.86133 9.07227 8.03906 9 8.25 9H9V8.25C9 8.03906 9.07227 7.86133 9.2168 7.7168C9.36133 7.57227 9.53711 7.5 9.74414 7.5C9.95117 7.5 10.1289 7.57227 10.2773 7.7168C10.4258 7.86133 10.5 8.03906 10.5 8.25V9H11.25C11.4531 9 11.6289 9.07227 11.7773 9.2168C11.9258 9.36133 12 9.53711 12 9.74414C12 9.95117 11.9258 10.1289 11.7773 10.2773C11.6289 10.4258 11.4531 10.5 11.25 10.5ZM8.32031 7.5C8.07031 7.70312 7.79688 7.86719 7.5 7.99219V8.32031C7.28125 8.39844 7.10156 8.5332 6.96094 8.72461C6.82031 8.91602 6.75 9.13281 6.75 9.375V10.125C6.75 10.4375 6.85938 10.7031 7.07812 10.9219C7.29688 11.1406 7.5625 11.25 7.875 11.25H8.25V11.9766C7.70312 11.9922 6.95312 12 6 12H5.10938L4.16016 11.9883L3.14062 11.959L2.20312 11.9062L1.31836 11.8066L0.644531 11.666L0.158203 11.4727L0 11.2148C0.015625 10.5273 0.445312 9.91992 1.28906 9.39258C2.13281 8.86523 3.20312 8.51562 4.5 8.34375V7.95703C4.09375 7.77734 3.74219 7.52344 3.44531 7.19531C3.14844 6.86719 2.91406 6.48242 2.74219 6.04102C2.57031 5.59961 2.44531 5.12695 2.36719 4.62305C2.28906 4.11914 2.25 3.57812 2.25 3C2.25 2.49219 2.34766 2.04492 2.54297 1.6582C2.73828 1.27148 3.00781 0.958984 3.35156 0.720703C3.69531 0.482422 4.08984 0.302734 4.53516 0.181641C4.98047 0.0605469 5.46875 0 6 0C6.53125 0 7.01953 0.0605469 7.46484 0.181641C7.91016 0.302734 8.30469 0.482422 8.64844 0.720703C8.99219 0.958984 9.26172 1.27148 9.45703 1.6582C9.65234 2.04492 9.75 2.49219 9.75 3C9.75 4.71875 9.45703 6.00781 8.87109 6.86719C8.60547 7.00781 8.42188 7.21875 8.32031 7.5Z" fill="#A4A8BA"/>
</svg>
