<svg width="8" height="12" viewBox="0 0 8 12" fill="none" xmlns="http://www.w3.org/2000/svg">
<path fill-rule="evenodd" clip-rule="evenodd" d="M3.99976 1.5C4.13236 1.5 4.25954 1.55268 4.35331 1.64645C4.44708 1.74021 4.49976 1.86739 4.49976 2V11C4.49976 11.1326 4.44708 11.2598 4.35331 11.3536C4.25954 11.4473 4.13236 11.5 3.99976 11.5C3.86715 11.5 3.73997 11.4473 3.6462 11.3536C3.55243 11.2598 3.49976 11.1326 3.49976 11V2C3.49976 1.86739 3.55243 1.74021 3.6462 1.64645C3.73997 1.55268 3.86715 1.5 3.99976 1.5V1.5Z" fill="#00FA55"/>
<path fill-rule="evenodd" clip-rule="evenodd" d="M3.64566 0.645917C3.6921 0.599354 3.74728 0.562411 3.80802 0.537205C3.86877 0.511998 3.93389 0.499023 3.99966 0.499023C4.06542 0.499023 4.13054 0.511998 4.19129 0.537205C4.25203 0.562411 4.30721 0.599354 4.35366 0.645917L7.35366 3.64592C7.44754 3.7398 7.50029 3.86714 7.50029 3.99992C7.50029 4.13269 7.44754 4.26003 7.35366 4.35392C7.25977 4.4478 7.13243 4.50055 6.99966 4.50055C6.86688 4.50055 6.73954 4.4478 6.64566 4.35392L3.99966 1.70692L1.35366 4.35392C1.25977 4.4478 1.13243 4.50055 0.999655 4.50055C0.866879 4.50055 0.739542 4.4478 0.645655 4.35392C0.551769 4.26003 0.499023 4.13269 0.499023 3.99992C0.499023 3.86714 0.551769 3.7398 0.645655 3.64592L3.64566 0.645917Z" fill="#00FA55"/>
</svg>
