<svg width="14" height="13" viewBox="0 0 14 13" fill="none" xmlns="http://www.w3.org/2000/svg">
<path d="M12.8059 4.45001L8.83873 3.87344L7.06529 0.278131C7.01685 0.179693 6.93716 0.100006 6.83873 0.0515683C6.59185 -0.0703067 6.29185 0.0312558 6.16841 0.278131L4.39498 3.87344L0.427788 4.45001C0.318413 4.46563 0.218413 4.51719 0.141851 4.59532C0.0492908 4.69045 -0.00171392 4.81844 4.3978e-05 4.95117C0.00180188 5.08389 0.0561785 5.21048 0.151226 5.30313L3.02154 8.10157L2.34341 12.0531C2.32751 12.1451 2.33768 12.2396 2.37278 12.326C2.40787 12.4125 2.46648 12.4873 2.54196 12.5422C2.61744 12.597 2.70677 12.6296 2.79982 12.6362C2.89287 12.6428 2.98592 12.6233 3.06841 12.5797L6.61685 10.7141L10.1653 12.5797C10.2622 12.6313 10.3747 12.6484 10.4825 12.6297C10.7544 12.5828 10.9372 12.325 10.8903 12.0531L10.2122 8.10157L13.0825 5.30313C13.1606 5.22657 13.2122 5.12657 13.2278 5.01719C13.27 4.74376 13.0794 4.49063 12.8059 4.45001Z" fill="#ACC5DB"/>
</svg>
